<svg id="Capa_1" data-name="Capa 1" xmlns="http://www.w3.org/2000/svg" viewBox="0 0 142 143"><defs><style>.cls-1{fill:none;stroke:#fff;stroke-miterlimit:10;stroke-width:3px;}.cls-2{fill:#fff;}</style></defs><circle class="cls-1" cx="70.25" cy="52.25" r="14.75"/><path class="cls-2" d="M103.5,106.29a1.5,1.5,0,0,1-1.44-1.09A33.52,33.52,0,0,0,70,81h-.48a33.68,33.68,0,0,0-31.58,24.2,1.5,1.5,0,1,1-2.88-.83A36.7,36.7,0,0,1,69.48,78H70a36.53,36.53,0,0,1,35,26.37,1.5,1.5,0,0,1-1,1.86A1.52,1.52,0,0,1,103.5,106.29Z"/></svg>