<svg id="Capa_1" data-name="Capa 1" xmlns="http://www.w3.org/2000/svg" viewBox="0 0 142 143"><defs><style>.cls-1{fill:#fff;}</style></defs><path class="cls-1" d="M53.83,62.86a1.5,1.5,0,0,1-1.45-1.12c-.45-1.71-2.31-10.57,5.21-16.92a19.39,19.39,0,0,1,13-4.94,19.13,19.13,0,0,1,10.66,3.51c9.1,6.18,7.28,17,7,18.25a1.5,1.5,0,1,1-2.94-.57c.2-1,1.72-10.1-5.78-15.2a15.85,15.85,0,0,0-20,1.24C53.38,52.3,54.91,59.57,55.28,61a1.5,1.5,0,0,1-1.07,1.83A1.73,1.73,0,0,1,53.83,62.86Z"/><path class="cls-1" d="M82,103.64H58.46A10.62,10.62,0,0,1,47.86,93V69.46a10.62,10.62,0,0,1,10.6-10.6H82a10.62,10.62,0,0,1,10.6,10.6V93A10.62,10.62,0,0,1,82,103.64ZM58.46,61.86a7.61,7.61,0,0,0-7.6,7.6V93a7.61,7.61,0,0,0,7.6,7.6H82a7.61,7.61,0,0,0,7.6-7.6V69.46a7.61,7.61,0,0,0-7.6-7.6Z"/><circle class="cls-1" cx="70.7" cy="79.89" r="4.09"/><rect class="cls-1" x="69.34" y="83.07" width="2.72" height="9.08"/></svg>