<svg id="Capa_1" data-name="Capa 1" xmlns="http://www.w3.org/2000/svg" viewBox="0 0 71 70"><defs><style>.cls-1{fill:#fff;}</style></defs><path class="cls-1" d="M60,57H20V9H45.89L60,16.84ZM23,54H57V18.61L45.11,12H23Z"/><polygon class="cls-1" points="50 56 50 59 16 59 16 17 20 17 20 14 13 14 13 62 53 62 53 56 50 56"/><rect class="cls-1" x="27.5" y="19.5" width="25" height="2.5"/><rect class="cls-1" x="27.5" y="24.5" width="25" height="2.5"/><rect class="cls-1" x="27.5" y="29.5" width="25" height="2.5"/><rect class="cls-1" x="27.5" y="34.5" width="25" height="2.5"/><rect class="cls-1" x="27.5" y="39.5" width="25" height="2.5"/><rect class="cls-1" x="27.5" y="44.5" width="25" height="2.5"/></svg>