<svg id="Capa_1" data-name="Capa 1" xmlns="http://www.w3.org/2000/svg" viewBox="0 0 71 69"><defs><style>.cls-1{fill:#fff;}</style></defs><path class="cls-1" d="M51.85,17h-10a1.49,1.49,0,0,0,0,3h8.47v26.5H41.9a1.49,1.49,0,0,0,0,3h10a1.49,1.49,0,0,0,1.49-1.49V18.46A1.49,1.49,0,0,0,51.85,17Z"/><path class="cls-1" d="M44.38,33.58a1.74,1.74,0,0,0-.54-1.27l-9.41-8.92a1.76,1.76,0,0,0-2.46.07A1.74,1.74,0,0,0,32,25.91L38.42,32H17.68a1.74,1.74,0,0,0,0,3.47H38.12l-6.07,5.66a1.74,1.74,0,0,0,1.18,3,1.76,1.76,0,0,0,1.19-.47l9.41-8.79A1.73,1.73,0,0,0,44.38,33.58Z"/></svg>