<svg id="Capa_1" data-name="Capa 1" xmlns="http://www.w3.org/2000/svg" viewBox="0 0 71 62"><defs><style>.cls-1{fill:#fff;}</style></defs><path class="cls-1" d="M53.05,34q.15-3.22.32-6.46L48.52,26l-.32-1.29q1.21-2.1,2.44-4.19l-4.78-5-4.12,2.74-1.29-.65-1-4.85H32.37l-1,4.53-1.61.64L25.59,15l-4.52,5.49,2.26,3.87-.65,1.3-4.52,1c-.11,2.27-.21,4.53-.32,6.79,1.19.23,4.38.89,4.74,1.28l0,0a2.07,2.07,0,0,1,.39.93c.06.44-.7,2.28-2.27,4.52l4.86,4.74,3.87-2.16a2.61,2.61,0,0,1,1,.33l.17.1c.48,1.58,1,3.16,1.45,4.74h6.78l1-4.52,1.62-.65,3.87,2.59,4.85-4.85Q49,38.57,47.88,36.63l.32-1.29ZM35.6,36.79a6.62,6.62,0,1,1,6.62-6.62A6.63,6.63,0,0,1,35.6,36.79Z"/></svg>